<svg width="15" height="15" viewBox="0 0 15 15" fill="none" xmlns="http://www.w3.org/2000/svg">
<path d="M14.9998 11.8464C14.9998 11.7718 14.9998 11.6972 14.9678 11.6227C14.8932 11.3989 14.3712 11.1646 14.1582 11.058C13.5509 10.7171 12.933 10.3869 12.3365 10.0353C12.0595 9.86487 11.7186 9.54528 11.3883 9.54528C10.7385 9.54528 9.79034 11.4735 9.21506 11.4735C8.92743 11.4735 8.55456 11.2072 8.29888 11.058C6.35999 9.98206 5.01768 8.63975 3.9417 6.70086C3.79256 6.44518 3.52623 6.07232 3.52623 5.78468C3.52623 5.2094 5.45446 4.26126 5.45446 3.61141C5.45446 3.28116 5.13487 2.94026 4.96442 2.66328C4.61286 2.06669 4.28261 1.4488 3.9417 0.84157C3.83517 0.628504 3.6008 0.106495 3.37708 0.0319221C3.30251 -3.78032e-05 3.22794 -3.78032e-05 3.15336 -3.78032e-05C2.76985 -3.78032e-05 2.02412 0.170415 1.67256 0.330213C1.15055 0.553931 0.809647 1.15051 0.543316 1.62991C0.202412 2.25845 0 2.89765 0 3.61141C0 4.60217 0.404824 5.49704 0.735074 6.40257C0.969446 7.05242 1.25708 7.68096 1.61929 8.26689C2.73789 10.0779 4.9218 12.2619 6.73286 13.3804C7.31878 13.7427 7.94733 14.0303 8.59717 14.2647C9.5027 14.5949 10.3976 14.9997 11.3883 14.9997C12.1021 14.9997 12.7413 14.7973 13.3698 14.4564C13.8492 14.1901 14.4458 13.8492 14.6695 13.3272C14.8293 12.9756 14.9998 12.2299 14.9998 11.8464Z" fill="#482BE7"/>
</svg>
