<svg width="24" height="15" viewBox="0 0 24 15" fill="none" xmlns="http://www.w3.org/2000/svg">
<path d="M14.7031 7.67408C14.7031 7.18296 14.652 6.80438 14.5804 6.4258H7.49993V9.00422H11.7564C11.5824 10.099 10.4672 12.2375 7.49993 12.2375C4.94197 12.2375 2.85468 10.1195 2.85468 7.50014C2.85468 4.88079 4.94197 2.76281 7.49993 2.76281C8.96308 2.76281 9.9351 3.38695 10.4876 3.919L12.5238 1.96472C11.2141 0.736904 9.52583 0.000212382 7.49993 0.000212382C3.35604 0.000212382 0 3.35625 0 7.50014C0 11.644 3.35604 15.0001 7.49993 15.0001C11.828 15.0001 14.7031 11.9612 14.7031 7.67408ZM23.5741 6.4258H21.4357V4.28735H19.287V6.4258H17.1485V8.57448H19.287V10.7129H21.4357V8.57448H23.5741V6.4258Z" fill="#1E0E62"/>
</svg>
