<svg width="16" height="16" viewBox="0 0 16 16" fill="none" xmlns="http://www.w3.org/2000/svg">
<path d="M12.9999 0.000216217H2.99997C1.34374 0.000216217 0 1.34395 0 3.00019V13.0001C0 14.6563 1.34374 16.0001 2.99997 16.0001H8.54159V9.80221H6.45828V7.38557H8.54159V5.60433C8.54159 3.54185 9.81241 2.41686 11.6561 2.41686C12.5311 2.41686 13.2915 2.47936 13.5103 2.51061V4.66684L12.2395 4.67726C11.2291 4.67726 11.0416 5.146 11.0416 5.84391V7.38557H13.427L13.1145 9.80221H11.0416V16.0001H12.9999C14.6561 16.0001 15.9999 14.6563 15.9999 13.0001V3.00019C15.9999 1.34395 14.6561 0.000216217 12.9999 0.000216217Z" fill="#1E0E62"/>
</svg>
