<svg width="16" height="13" viewBox="0 0 16 13" fill="none" xmlns="http://www.w3.org/2000/svg">
<path d="M15.9999 1.54291C15.411 1.79672 14.7714 1.97946 14.1116 2.05052C14.7918 1.64444 15.3095 1.00485 15.5532 0.24344C14.9237 0.619069 14.2131 0.893177 13.472 1.03531C12.873 0.395722 12.0202 -0.000211813 11.0761 -0.000211813C9.25883 -0.000211813 7.79692 1.47185 7.79692 3.27893C7.79692 3.53274 7.82738 3.78654 7.87814 4.03019C5.15736 3.88806 2.731 2.58859 1.11681 0.598765C0.832547 1.08607 0.670112 1.64444 0.670112 2.25357C0.670112 3.39061 1.24878 4.39567 2.13202 4.98449C1.59396 4.96419 1.08635 4.81191 0.649808 4.56826C0.649808 4.57841 0.649808 4.59871 0.649808 4.60886C0.649808 6.20275 1.7767 7.52253 3.27922 7.8271C3.00511 7.89816 2.71069 7.93877 2.41628 7.93877C2.20309 7.93877 2.00004 7.91847 1.797 7.88801C2.21324 9.18748 3.42135 10.1316 4.86295 10.1621C3.73606 11.0453 2.32491 11.5631 0.791938 11.5631C0.51783 11.5631 0.264026 11.5529 7.05252e-05 11.5225C1.45183 12.4565 3.17769 12.9945 5.03554 12.9945C11.0659 12.9945 14.3654 7.99968 14.3654 3.66471C14.3654 3.52258 14.3654 3.38045 14.3552 3.23832C14.9948 2.77133 15.5532 2.19265 15.9999 1.54291Z" fill="#1E0E62"/>
</svg>
