<svg width="30" height="22" viewBox="0 0 30 22" fill="none" xmlns="http://www.w3.org/2000/svg">
<path d="M29.9999 16C29.9999 17.6562 29.4114 19.0729 28.2343 20.25C27.0676 21.4167 25.6562 22 23.9999 22H6.99998C5.0729 22 3.42187 21.3177 2.04687 19.9531C0.68229 18.5781 0 16.9271 0 15C0 13.625 0.369791 12.3698 1.10937 11.2344C1.84895 10.0886 2.82291 9.23439 4.03124 8.67189C4.01041 8.38022 3.99999 8.15627 3.99999 8.00002C3.99999 5.79169 4.78124 3.90628 6.34374 2.34378C7.90623 0.781282 9.79164 3.3935e-05 12 3.3935e-05C13.6458 3.3935e-05 15.1354 0.458366 16.4687 1.37503C17.8125 2.29169 18.7916 3.48961 19.4062 4.96877C20.1354 4.32294 21 4.00002 21.9999 4.00002C23.1041 4.00002 24.0468 4.39065 24.8281 5.1719C25.6093 5.95315 25.9999 6.89585 25.9999 8.00002C25.9999 8.78126 25.7864 9.50001 25.3593 10.1563C26.7031 10.4688 27.8124 11.1719 28.6874 12.2656C29.5624 13.349 29.9999 14.5938 29.9999 16Z" fill="white"/>
</svg>
